<svg id="Layer_1" data-name="Layer 1" xmlns="http://www.w3.org/2000/svg" viewBox="0 0 400 300" width="406" height="306" class="illustration styles_illustrationTablet__1DWOa"><path d="M162.46,90.79s16-2.85,18.95,12.72-6,52.09,26.14,51.83,24.26-1.28,24.26-1.28l1.29,9.19s-56.95,21.24-67.58-13S162.46,90.79,162.46,90.79Z" fill="#4585FF"></path><path d="M162.46,90.79s16-2.85,18.95,12.72-6,52.09,26.14,51.83,24.26-1.28,24.26-1.28l1.29,9.19s-56.95,21.24-67.58-13S162.46,90.79,162.46,90.79Z" fill="#fff" opacity="0.46"></path><polygon points="172 203.09 144.62 253.67 140.84 252.79 157.27 199.64 172 203.09" fill="#f4a28c"></polygon><path d="M145,252.89s.66,3.43,3.18,4.58,1.07,4.81-2.69,2.41a24.36,24.36,0,0,1-3.31-2.51,7.17,7.17,0,0,0-3.39-1.61,1.22,1.22,0,0,1-.9-1c-.44-1.89,3.89-3.5,3.89-3.5Z" fill="#4585FF"></path><polygon points="177 198.25 181.41 255.61 177.76 256.91 162.75 203.34 177 198.25" fill="#f4a28c"></polygon><path d="M181.27,254.77s2.41,2.52,5.15,2.13,3.51,3.45-.95,3.47a24,24,0,0,1-4.15-.31,7.21,7.21,0,0,0-3.72.49,1.21,1.21,0,0,1-1.31-.39c-1.4-1.35,1.37-5.05,1.37-5.05Z" fill="#4585FF"></path><path d="M139.21,57.48C98.31,67.59,66,99.51,56.5,140.56c-7,30.55-.86,62.05,46.59,73.5,102.59,24.77,213.4,16.6,226.68-32.93s-11.36-134.51-70-139.77C226.35,38.37,176.2,48.34,139.21,57.48Z" fill="#e6e6e6" opacity="0.3"></path><ellipse cx="198.67" cy="261.38" rx="137.87" ry="13.24" fill="#e6e6e6" opacity="0.45"></ellipse><path d="M105.73,247.67s-8.22-2.21-10-9.85c0,0,12.72-2.63,13.14,10.51Z" fill="#4585FF" opacity="0.58"></path><path d="M106.74,246.85s-5.78-9.06-.76-17.56c0,0,9.7,6.1,5.45,17.56Z" fill="#4585FF" opacity="0.73"></path><path d="M108.22,246.85s3-9.6,12.16-11.46c0,0,1.74,6.22-5.9,11.46Z" fill="#4585FF"></path><polygon points="102.26 246.66 103.97 258.05 114.46 258.05 115.96 246.66 102.26 246.66" fill="#24285b"></polygon><path d="M105.73,247.67s-8.22-2.21-10-9.85c0,0,12.72-2.63,13.14,10.51Z" fill="#4585FF" opacity="0.58"></path><path d="M106.74,246.85s-5.78-9.06-.76-17.56c0,0,9.7,6.1,5.45,17.56Z" fill="#4585FF" opacity="0.73"></path><path d="M108.22,246.85s3-9.6,12.16-11.46c0,0,1.74,6.22-5.9,11.46Z" fill="#4585FF"></path><polygon points="102.26 246.66 103.97 258.05 114.46 258.05 115.96 246.66 102.26 246.66" fill="#24285b"></polygon><polygon points="240.96 16.34 198.24 101.69 220.69 101.69 220.69 235.39 261.51 235.39 261.51 101.69 283.68 101.69 240.96 16.34" fill="#ffd200"></polygon><path d="M155.89,63.16s-5.94-5-10.61-1.52-1.5,17.69-11.66,14.43c0,0,11,9.16,18.77-5.8Z" fill="#24285b"></path><path d="M151.15,72.89s-4-.58-2.37-6.08S155,61.52,156.32,63Z" fill="#4585FF"></path><polygon points="178.88 163.25 188.66 244.96 163.24 244.96 161.13 171.43 178.88 163.25" fill="#24285b"></polygon><polygon points="178.88 163.25 188.66 244.96 163.24 244.96 161.13 171.43 178.88 163.25" opacity="0.08"></polygon><path d="M163.21,69.9a30.11,30.11,0,0,1-1.89,7.77,2.42,2.42,0,0,1-3.23,1.15,5.33,5.33,0,0,1-3.34-4.73l-.62-4.4a4.32,4.32,0,0,1,2.74-4.17C159.9,64.12,163.66,67,163.21,69.9Z" fill="#f4a28c"></path><polygon points="153.15 72.14 150.01 87.59 158.65 88.71 157.49 77.31 153.15 72.14" fill="#f4a28c"></polygon><path d="M162.74,72.9l1,2.08a.77.77,0,0,1-.7,1.09h-1.88Z" fill="#f4a28c"></path><path d="M157.52,77.64a5.92,5.92,0,0,1-2.64-1.72s-1,3.31,3,5Z" fill="#ce8172" opacity="0.31"></path><path d="M153.47,72.22s.31-1.83-1.08-2-1.87,2.51-.06,3.12Z" fill="#f4a28c"></path><path d="M162.26,69.49a13.83,13.83,0,0,1-4.59-.53s-1.58,5.2-5.94,6.05c0,0-3.09-8.38,2.16-10.89,4.39-2.11,7.7-4,10.73-.6A3.6,3.6,0,0,1,162.26,69.49Z" fill="#24285b"></path><path d="M147.74,88.62s-26.05,2.8-27.07,17.78S138,163.25,138,163.25h40.85l3.82-22.91a47,47,0,0,1,5.38-15c3.13-5.64,5.85-15-2.81-24A27.63,27.63,0,0,0,175,94.75l-15.28-5.7Z" fill="#4585FF"></path><path d="M157.44,71.76s0-2.15-1.71-2-2,2.63,0,3.85Z" fill="#f4a28c"></path><path d="M146.63,88.27s-1.2-3.72,5.7-4.5,12.39,2.15,10.13,7C162.46,90.79,157.26,94.93,146.63,88.27Z" fill="#4585FF"></path><path d="M146.63,88.27s-1.2-3.72,5.7-4.5,12.39,2.15,10.13,7C162.46,90.79,157.26,94.93,146.63,88.27Z" fill="#fff" opacity="0.46"></path><path d="M138,163.25l6,19.64A63.42,63.42,0,0,1,143.3,222L138,237.29,163.24,245l6.11-25.11a60,60,0,0,0-.78-31.26l-.11-.36a21.36,21.36,0,0,1,9.38-24.33l1-.64Z" fill="#24285b"></path><path d="M144.75,101.9s6.39,10.2,0,24-2,19.24,17.61,19l8.34-16.37,14.69,2.39s-2.23,5.18-2.35,7.65l-4.16,24.67H138l-.75-2.74-8.62-15.77-4-19.91Z" opacity="0.08"></path><rect x="153.33" y="123.32" width="25.56" height="34.56" transform="translate(18.87 -19.65) rotate(7.18)" fill="#ffd200"></rect><path d="M174.9,146.16s3.21,5.69-3,6.88-6.37,4.9-6.37,4.9l-13.12-1.75Z" opacity="0.08"></path><rect x="162.94" y="121.25" width="10.34" height="5.38" transform="translate(16.8 -20.03) rotate(7.18)" fill="#24285b"></rect><path d="M144.8,108.07c2.73-10-8.51-18.08-17.13-12.34C117.46,102.51,103,116.64,109,140.06c8.94,35,36.4,23.45,56.53,10.21l-3.16-5.36s-29.52,9-32.8-6.72a12.93,12.93,0,0,1,3.4-11.38C136.69,122.82,142.77,115.48,144.8,108.07Z" fill="#4585FF"></path><path d="M144.8,108.07c2.73-10-8.51-18.08-17.13-12.34C117.46,102.51,103,116.64,109,140.06c8.94,35,36.4,23.45,56.53,10.21l-3.16-5.36s-29.52,9-32.8-6.72a12.93,12.93,0,0,1,3.4-11.38C136.69,122.82,142.77,115.48,144.8,108.07Z" fill="#fff" opacity="0.46"></path><path d="M162.36,144.91s8.68-5.06,12,0-8.84,5.36-8.84,5.36Z" fill="#f4a28c"></path></svg>