<svg id="Layer_1" data-name="Layer 1" xmlns="http://www.w3.org/2000/svg" viewBox="0 0 400 300" width="406" height="306" class="illustration styles_illustrationTablet__1DWOa"><title>_</title><path d="M111,62.63C77.05,71.8,50.27,93.29,46,132.84c-3.56,33.33,1.47,92.18,58.61,101.82,111.19,18.75,194,17.66,234.94-33.63,25.28-31.7,23.45-126.62-38.87-140C256.64,51.62,183.72,43,111,62.63Z" fill="#e6e6e6" opacity="0.3"></path><rect x="152.38" y="67.93" width="103.02" height="160.59" fill="#fff"></rect><rect x="182.31" y="71" width="52.45" height="90.58" transform="translate(17.2 -26.55) rotate(7.6)" fill="#4585FF"></rect><rect x="187.93" y="76.24" width="41.21" height="80.1" transform="translate(17.2 -26.55) rotate(7.6)" fill="#fff" opacity="0.2"></rect><circle cx="208.54" cy="116.29" r="10.51" fill="#fff" opacity="0.2"></circle><rect x="175.36" y="22.64" width="52.45" height="90.58" transform="translate(25.73 -51.76) rotate(15.62)" fill="#4585FF"></rect><rect x="180.98" y="27.88" width="41.21" height="80.1" transform="translate(25.73 -51.76) rotate(15.62)" fill="#fff" opacity="0.2"></rect><circle cx="201.59" cy="67.93" r="10.51" fill="#fff" opacity="0.2"></circle><ellipse cx="202.21" cy="262.57" rx="119.91" ry="14.17" fill="#e6e6e6" opacity="0.45"></ellipse><rect x="240.52" y="243.21" width="63.73" height="16.78" fill="#e6e6e6"></rect><rect x="226.59" y="226.8" width="63.73" height="16.78" fill="#e6e6e6" opacity="0.43"></rect><path d="M269.72,217s-7.93-2.16-9.65-9.54c0,0,12.28-2.48,12.63,10.2Z" fill="#4585FF" opacity="0.58"></path><path d="M270.69,216.23s-5.54-8.76-.66-16.94c0,0,9.33,5.93,5.18,17Z" fill="#4585FF" opacity="0.73"></path><path d="M272.12,216.23s2.92-9.24,11.77-11c0,0,1.65,6-5.73,11Z" fill="#4585FF"></path><polygon points="266.37 216.03 267.97 227.02 278.09 227.06 279.58 216.08 266.37 216.03" fill="#24285b"></polygon><path d="M147.84,62.29V262.05H262V62.29Zm104,159.88H157.29V73.76H251.8Z" fill="#e6e6e6"></path><circle cx="205.28" cy="242.42" r="7.08" fill="#fff" opacity="0.56"></circle><rect x="237.86" y="114.83" width="51.41" height="42.02" fill="#ffd200"></rect><path d="M271.51,125.68H259.06c.78,1.09,1.43,2.1,2.19,3,.48.6.41,1-.21,1.47-1.26,1-2.43,2.15-3.85,3.41h7.57c-.46.85-.82,1.57-1.24,2.26a.88.88,0,0,1-.63.32c-4.1,0-8.21,0-12.59,0,.39-.37.61-.61.85-.82,2-1.74,4-3.48,6-5.2.51-.42.56-.74.19-1.27-1.17-1.64-2.27-3.32-3.4-5-.16-.25-.31-.5-.52-.85h22.93c-.12.32-.2.59-.32.84q-5.66,11.79-11.29,23.59a1.22,1.22,0,0,1-1.34.78c-.83-.05-1.66,0-2.69,0Z" fill="#fff"></path><circle cx="204.75" cy="187.46" r="20" fill="#24285b"></circle><polygon points="204.75 175.78 195.26 187.44 200.66 187.44 200.66 199.14 208.84 199.14 208.84 187.44 214.24 187.44 204.75 175.78" fill="#fff"></polygon><path d="M135.49,145.33s32.07,31,55.65,33.88l-1.6,7.8s-36.93-1.77-52.93-15.23Z" fill="#4585FF"></path><path d="M135.49,145.33s32.07,31,55.65,33.88l-1.6,7.8s-36.93-1.77-52.93-15.23Z" fill="#fff" opacity="0.46"></path><path d="M97.54,259.14s-1,3-3.45,3.21-3.12,2.87-.9,3.56,8-2.43,8-2.43l-.16-3.9Z" fill="#4585FF"></path><path d="M131.5,259.14s1,3,3.45,3.21,3.12,2.87.9,3.56-8-2.43-8-2.43l.16-3.9Z" fill="#4585FF"></path><path d="M106.65,201.69l-9.65,58h4.82l12.09-31.49a53.35,53.35,0,0,1,21.45-26.39l3.55-2.2Z" fill="#24285b"></path><path d="M138.91,199.6l-5,60.08h-6.41s1.5-45.21-10.06-54.83Z" fill="#24285b"></path><path d="M120.65,126.08a28.52,28.52,0,0,1,1.78,7.38,2.3,2.3,0,0,1-2.22,2.38,5.06,5.06,0,0,1-4.88-2.54l-2.44-3.45a4.09,4.09,0,0,1,.5-4.71C115.34,122.63,119.77,123.44,120.65,126.08Z" fill="#f4a28c"></path><polygon points="113.33 130.48 115.25 145.33 123.36 143.7 118.71 133.54 113.33 130.48" fill="#f4a28c"></polygon><path d="M119.62,126.59a18.62,18.62,0,0,1-4.14.87,3.82,3.82,0,0,1,1.18,4,3.11,3.11,0,0,1-3.25,2.24l-1.58-5.65a4.68,4.68,0,0,1,1.09-4.65,17.45,17.45,0,0,1,1.61-1.47c1.43-1.13,4.13-.75,5.26-2.27a1.1,1.1,0,0,1,1.88.2c.76,1.64,1.24,4.43-.8,6.05A4.4,4.4,0,0,1,119.62,126.59Z" fill="#24285b"></path><path d="M117.09,131.21s-.53-1.68-1.76-1.18-.48,2.93,1.31,2.66Z" fill="#f4a28c"></path><path d="M121.56,128.82l1.72,1.33a.73.73,0,0,1-.12,1.23l-1.58.81Z" fill="#f4a28c"></path><path d="M119.82,135.72a5.39,5.39,0,0,1-3-.77s.89,2.59,4.54,4.34Z" fill="#ce8172" opacity="0.31"></path><path d="M138.91,200.16l-13.91,1-18.35,1.37h0c-.39-.57-16.07-23.18-15.75-40.46.16-9.11,4.79-16.74,18.46-18.87L115,143a32.87,32.87,0,0,0,4.1-.36c4.35-.65,17.39-1.46,24.47,10.88C152.14,168.49,138.91,200.16,138.91,200.16Z" fill="#4585FF"></path><path d="M125.3,201.34l-18.65,1.21h0c-.39-.57-16.07-23.18-15.75-40.46,10.53-4.9,27.62-6.55,27.62-6.55s3.49,3.58-.65,8.53c-5.09,6.1-6.89,14.42-3.85,21.75,2,4.73,4.76,12.23,11,15.37A2.19,2.19,0,0,0,125.3,201.34Z" opacity="0.08"></path><path d="M117.06,149.56a12.9,12.9,0,0,0-14.67-4.29c-9.73,3.45-26.39,11.69-28.18,28-2.54,23.21,34.54,28.29,34.54,28.29l1.2-5.9s-38.41-21.48-1.2-32.29C108.75,163.38,123.63,158.46,117.06,149.56Z" fill="#4585FF"></path><path d="M117.06,149.56a12.9,12.9,0,0,0-14.67-4.29c-9.73,3.45-26.39,11.69-28.18,28-2.54,23.21,34.54,28.29,34.54,28.29l1.2-5.9s-38.41-21.48-1.2-32.29C108.75,163.38,123.63,158.46,117.06,149.56Z" fill="#fff" opacity="0.46"></path><path d="M110,196.53s6.35.11,5.24,4.09-6.49.95-6.49.95Z" fill="#f4a28c"></path><path d="M190.91,180.3s9.65-1.06,9.06-.27-3.63,1.79-3.63,1.79.91,1.38-1.46,3.12a6.51,6.51,0,0,1-5.12,1Z" fill="#f4a28c"></path><rect x="262.02" y="227.06" width="5.15" height="32.93" opacity="0.08"></rect></svg>