<svg width="24" height="24" viewBox="0 0 24 24" fill="none" xmlns="http://www.w3.org/2000/svg">
<path d="M11.624 7.2221C10.748 7.2221 9.392 6.2261 7.964 6.2621C6.08 6.2861 4.352 7.3541 3.38 9.0461C1.424 12.4421 2.876 17.4581 4.784 20.2181C5.72 21.5621 6.824 23.0741 8.288 23.0261C9.692 22.9661 10.22 22.1141 11.924 22.1141C13.616 22.1141 14.096 23.0261 15.584 22.9901C17.096 22.9661 18.056 21.6221 18.98 20.2661C20.048 18.7061 20.492 17.1941 20.516 17.1101C20.48 17.0981 17.576 15.9821 17.54 12.6221C17.516 9.8141 19.832 8.4701 19.94 8.4101C18.62 6.4781 16.592 6.2621 15.884 6.2141C14.036 6.0701 12.488 7.2221 11.624 7.2221ZM14.744 4.3901C15.524 3.4541 16.04 2.1461 15.896 0.850098C14.78 0.898098 13.436 1.5941 12.632 2.5301C11.912 3.3581 11.288 4.6901 11.456 5.9621C12.692 6.0581 13.964 5.3261 14.744 4.3901Z" fill="black"/>
</svg>
