<svg id="Layer_1" data-name="Layer 1" xmlns="http://www.w3.org/2000/svg" viewBox="0 0 400 300" width="406" height="306" class="illustration styles_illustrationTablet__1DWOa"><path d="M146.67,107.54s-12.6,22.84,5.06,29.73,44.72-18.83,44.72-18.83,9.2-4.15,6.9-9.76-11.75,5.1-11.75,5.1-39.83,18.41-31.91-6.24Z" fill="#f4a28c"></path><rect x="83.86" y="202.78" width="44.94" height="38.45" fill="#ffd200"></rect><rect x="146.67" y="177.69" width="44.94" height="63.54" fill="#ffd200"></rect><rect x="207.43" y="154.21" width="44.94" height="87.02" fill="#ffd200"></rect><rect x="268.71" y="107.54" width="44.94" height="133.69" fill="#ffd200"></rect><path d="M160.71,53.91s1.36,6.05.88,10.26a3.12,3.12,0,0,1-3.48,2.73,6.88,6.88,0,0,1-6-4.41l-2.55-5.12a5.58,5.58,0,0,1,1.64-6.23C154.31,48.18,160.07,50.18,160.71,53.91Z" fill="#f4a28c"></path><polygon points="153.78 56.89 138.7 70.52 146.81 78.29 154.33 65.58 153.78 56.89" fill="#f4a28c"></polygon><path d="M159.22,54.37a24.37,24.37,0,0,1-5.72.32,5.17,5.17,0,0,1,.75,5.63,4.21,4.21,0,0,1-4.81,2.34l-1-7.91a6.31,6.31,0,0,1,2.42-6,23.9,23.9,0,0,1,2.46-1.64c2.16-1.22,5.69-.15,7.52-2a1.49,1.49,0,0,1,2.48.66c.68,2.35.76,6.19-2.31,7.94A5.93,5.93,0,0,1,159.22,54.37Z" fill="#24285b"></path><path d="M154.89,60.05s-.36-2.36-2.12-1.94-1.25,3.83,1.21,3.83Z" fill="#f4a28c"></path><path d="M161.37,57.76l2,2.14a1,1,0,0,1-.41,1.63l-2.29.76Z" fill="#f4a28c"></path><path d="M154.11,65.94a7.67,7.67,0,0,1-1.43-3.8s-3.56,2.67-.72,7.44Z" fill="#ce8172" opacity="0.31"></path><path d="M138.7,70.52l8.11,7.77s22.33,18.78,12.24,34.34-39.18,27.74-39.18,27.74l-21.64-22S108.7,52.51,138.7,70.52Z" fill="#4585FF"></path><path d="M98.23,118.34s-8.75,15.68,2.48,22,41.7-4,43.74,5.84a125.6,125.6,0,0,1,2.22,20.42l8.22,1.23s8.63-29.09-.56-37.88S98.23,118.34,98.23,118.34Z" fill="#24285b"></path><rect x="57.05" y="103.88" width="43.22" height="29.11" fill="#ffd200"></rect><path d="M125.52,134.62S136.11,174.12,95,188l-4.43-5.35s28.2-26.36,11.35-48Z" fill="#24285b"></path><path d="M133.6,89.62c7.05-8.1,2.14-20.83-8.43-22.77-11.66-2.14-28.59-2.74-41.31,7.3-21.45,16.91-12.26,47.3-12.26,47.3s-3.06,15,1.54,14.79,4.59-17.9,4.59-17.9S88.45,80.85,114.5,91.57C124.26,95.59,130.11,93.64,133.6,89.62Z" fill="#f4a28c"></path><path d="M91.31,183.57l-1.39.4a3.14,3.14,0,0,0-2.27,3.28l.4,4.83a2.3,2.3,0,0,0,4.06,1.29c.91-1.19,1.66-3.22,1.79-6.68Z" fill="#4585FF"></path><path d="M148.37,166.89l.52,2.78a2.4,2.4,0,0,0,3.08,1.85l5.39-1.69a1.68,1.68,0,0,0,.47-3C155.91,165.49,152.71,164.37,148.37,166.89Z" fill="#4585FF"></path><path d="M141.8,86s-2.67,10.46-15.09,15.4a14.71,14.71,0,0,0-8.23,18.93h0l-20.25-1.94s2-14.85,7-25.79S141.8,86,141.8,86Z" opacity="0.09"></path><path d="M94.5,66.42l5.43,26.43s5.8-1.54,18.57,2,25.78-3.58,23.74-15.32S125.65,57.86,94.5,66.42Z" fill="#4585FF"></path><path d="M94.5,66.42l5.43,26.43s5.8-1.54,18.57,2,25.78-3.58,23.74-15.32S125.65,57.86,94.5,66.42Z" fill="#fff" opacity="0.44"></path><rect x="56.28" y="239.83" width="293.11" height="12.59" fill="#e6e6e6"></rect><path d="M286,96.5s-8.85-2.41-10.77-10.65c0,0,13.71-2.77,14.1,11.38Z" fill="#4585FF" opacity="0.58"></path><path d="M287.13,95.63s-6.18-9.78-.74-18.92c0,0,10.42,6.63,5.79,18.94Z" fill="#4585FF" opacity="0.73"></path><path d="M288.72,95.63S292,85.31,301.86,83.36c0,0,1.85,6.7-6.39,12.3Z" fill="#4585FF"></path><polygon points="282.3 95.4 284.1 107.67 295.4 107.72 297.06 95.46 282.3 95.4" fill="#24285b"></polygon></svg>