<svg id="Layer_1" data-name="Layer 1" xmlns="http://www.w3.org/2000/svg" viewBox="0 0 400 300" width="406" height="306" class="illustration styles_illustrationTablet__1DWOa"><title>#128_loading_twocolour</title><rect x="138.49" y="48.93" width="114.13" height="204.69" fill="#c9c9c9"></rect><rect x="147.94" y="72.27" width="94.47" height="144.05" fill="#fff"></rect><path d="M120.25,158S93.52,160,87.36,188.43s-16.73,42.25-38.15,22.89l-4.69,6.16s30.22,36.5,57.22-3S120.25,158,120.25,158Z" fill="#4585FF"></path><path d="M120.25,158S93.52,160,87.36,188.43s-16.73,42.25-38.15,22.89l-4.69,6.16s30.22,36.5,57.22-3S120.25,158,120.25,158Z" fill="#fff" opacity="0.46"></path><ellipse cx="189.83" cy="254.92" rx="154.67" ry="13.59" fill="#e6e6e6" opacity="0.45"></ellipse><rect x="251.44" y="238.45" width="57.65" height="15.18" fill="#e6e6e6"></rect><rect x="238.84" y="223.6" width="57.65" height="15.18" fill="#e6e6e6" opacity="0.43"></rect><path d="M148,148s11.4-1.39,10,9.48-4,19.09,7,20.47,39.54,26.11,35.84,48.27-10.8,27.4-10.8,27.4H138.49Z" opacity="0.08"></path><path d="M270.63,212.81s-8.52-2.33-10.37-10.25c0,0,13.19-2.67,13.57,10.95Z" fill="#4585FF" opacity="0.58"></path><path d="M271.67,212s-5.95-9.4-.71-18.2c0,0,10,6.38,5.57,18.22Z" fill="#4585FF" opacity="0.73"></path><path d="M273.21,212s3.14-9.93,12.64-11.81c0,0,1.78,6.45-6.15,11.84Z" fill="#4585FF"></path><polygon points="267.03 211.75 268.76 223.56 279.63 223.6 281.23 211.81 267.03 211.75" fill="#24285b"></polygon><polygon points="35.34 156.57 35.34 170.56 44.38 170.56 46.35 176.13 48.69 170.56 57.73 170.56 57.73 156.57 35.34 156.57" fill="#e6e6e6"></polygon><circle cx="40.95" cy="163.22" r="1.46" fill="#a5a5a5"></circle><circle cx="46.53" cy="163.22" r="1.46" fill="#a5a5a5"></circle><circle cx="52.07" cy="163.22" r="1.46" fill="#a5a5a5"></circle><circle cx="195.9" cy="234.77" r="11.17" fill="#fff" opacity="0.56"></circle><rect x="185.9" y="56.93" width="32" height="4.67" opacity="0.12"></rect><circle cx="174.31" cy="59.78" r="5.21" fill="#fff"></circle><circle cx="209.26" cy="117.89" r="5.4" fill="#a5a5a5" opacity="0.02"></circle><circle cx="181.96" cy="145.19" r="5.4" fill="#a5a5a5" opacity="0.36"></circle><circle cx="209.26" cy="145.19" r="5.4" fill="#a5a5a5" opacity="0.16"></circle><circle cx="181.96" cy="117.89" r="5.4" fill="#a5a5a5" opacity="0.84"></circle><circle cx="195.43" cy="151.55" r="5.4" fill="#a5a5a5" opacity="0.23"></circle><circle cx="195.43" cy="112.93" r="5.4" fill="#a5a5a5"></circle><circle cx="175.86" cy="131.98" r="5.4" fill="#a5a5a5" opacity="0.52"></circle><circle cx="214.48" cy="131.98" r="5.4" fill="#a5a5a5" opacity="0.09"></circle><rect x="165.34" y="177.67" width="59.67" height="14.33" fill="#ffd200" opacity="0.35"></rect><rect x="165.34" y="177.67" width="39.74" height="14.33" fill="#ffd200"></rect><path d="M145.13,162.51s-19.54-13.29-40.75,3,0,73.38,0,73.38l46,1.53S199,197.08,145.13,162.51Z" fill="#4585FF"></path><path d="M165,181s28.53,38.5,8,46.75H155.26S137.14,176.06,165,181Z" fill="#4585FF"></path><path d="M167.09,227.7l-8.31-34.22-2.47-5.17-6-6.51h-9.08s-4,4.83,1.42,8.09,5.22,3.56,4.33,10.86l0,.22a38.52,38.52,0,0,1-24.45,31.35l-17.12,6.55S166.09,262.1,167.09,227.7Z" opacity="0.08"></path><path d="M143.7,161.6s-2.42,11-7,10.45-4-3.34-4-3.34-4.44,1.06-5-2.67,2.93-7.85,6.57-8.26S143.7,161.6,143.7,161.6Z" fill="#fff"></path><path d="M142.32,163.54a30.83,30.83,0,0,0-2.57,2.67c-1.1,1.3-3.09,2.94-5.5,1.68-3.71-2-.53-7.77-.53-7.77s1.74-6.42,5.78-4.31C143.13,157.7,146.45,159.63,142.32,163.54Z" fill="#f4a28c"></path><path d="M133.76,160.48s1-1.7-.37-2.71S130.22,160.1,133.76,160.48Z" fill="#f4a28c"></path><path d="M140.43,164.33s.7-1.87,2.36-1.38S142.91,166.89,140.43,164.33Z" fill="#f4a28c"></path><path d="M142.32,163.54s5.85,3.39,6.55-2.33-2.11-3.23-.86-7.11.71-5.23-1.93-5.24-3.17,3.92-5,1.23-3-4.72-5.07-3.05-2.38,3-1.34,5-3.62,2.74-.52,7,8.61,1.54,8.61,1.54Z" fill="#24285b"></path><path d="M166,226.12a9.42,9.42,0,0,0,14.47-9.33,19.26,19.26,0,0,0-3.36-8C169.65,198,156.54,180,156.54,180s-11.83-7.66-15.57-1.9,10.28,6.51,10.28,6.51S151.53,216.49,166,226.12Z" fill="#f4a28c"></path><path d="M156.54,180l-5.29,4.61s.87,43.23,20.48,43.16c0,0,13.15.45,8.9-15S171.93,199.86,156.54,180Z" fill="#4585FF"></path><path d="M156.54,180l-5.29,4.61s.87,43.23,20.48,43.16c0,0,13.15.45,8.9-15S171.93,199.86,156.54,180Z" fill="#fff" opacity="0.46"></path><path d="M105.41,238.87a106.55,106.55,0,0,0,44.42-8.32c8.55-3.55,18.69-6.06,26.45-2.85,16.43,6.8,3.33,33.5-38.83,27.05L98.51,253s-24.35,0-27-5.36c-3.22-6.54,1.77-11.49,32.87-8.79Z" fill="#24285b"></path><path d="M48.62,211.68s-3.52-8.86-7.17-7.3,3.58,12,3.58,12Z" fill="#f4a28c"></path><rect x="41.94" y="193.02" width="9.2" height="17.61" transform="translate(-63.76 26.51) rotate(-19.19)" fill="#ffd200"></rect><path d="M140.67,247.63s-18.14,2.45-13.76,6.64S142,255.33,142,255.33Z" fill="#4585FF"></path><path d="M107,253.37l.8-5.62s11.34.61,9.58,4.29S107,253.37,107,253.37Z" fill="#4585FF"></path><rect x="232.63" y="35.31" width="63.08" height="48.93" fill="#ffd200"></rect><rect x="232.63" y="84.24" width="20.13" height="17.13" opacity="0.08"></rect><circle cx="265.37" cy="60.52" r="14.15" fill="#fff" stroke="#24285b" stroke-miterlimit="10" stroke-width="2"></circle><polyline points="266.85 53.66 266.85 62.12 261.48 62.12" fill="none" stroke="#24285b" stroke-linecap="round" stroke-linejoin="round" stroke-width="2"></polyline></svg>