<svg width="406" height="306" viewBox="0 0 406 306" fill="none" xmlns="http://www.w3.org/2000/svg">
<path d="M116.473 176.591C116.473 176.591 143.874 235.785 109.533 242.32C75.1915 248.855 66.4201 209.63 66.4201 209.63L54 217.762C54 217.762 67.5648 263.044 105.355 263C143.145 262.956 168.715 250.438 167.985 209.63C167.255 168.821 116.473 176.591 116.473 176.591Z" fill="#4585FF"/>
<path opacity="0.44" d="M116.473 176.591C116.473 176.591 143.874 235.785 109.533 242.32C75.1915 248.855 66.4201 209.63 66.4201 209.63L54 217.762C54 217.762 67.5648 263.044 105.355 263C143.145 262.956 168.715 250.438 167.985 209.63C167.255 168.821 116.473 176.591 116.473 176.591Z" fill="white"/>
<path d="M157.495 91L146.652 94.4366L130.395 101.267C130.395 101.267 96.328 130.801 108.71 162.191C121.091 193.58 176.915 223 176.915 223L199 193.983L157.495 91Z" fill="#4585FF"/>
<path d="M53 142L59.3187 158L66 142H53Z" fill="#E6E6E6"/>
<path d="M376 9H158V298H376V9Z" fill="#E6E6E6"/>
<path opacity="0.08" d="M267.5 193C301.466 193 329 181.136 329 166.5C329 151.864 301.466 140 267.5 140C233.534 140 206 151.864 206 166.5C206 181.136 233.534 193 267.5 193Z" fill="black"/>
<path d="M185.5 41C189.642 41 193 37.4183 193 33C193 28.5817 189.642 25 185.5 25C181.358 25 178 28.5817 178 33C178 37.4183 181.358 41 185.5 41Z" fill="#FFD200"/>
<path d="M207.5 41C212.194 41 216 37.4183 216 33C216 28.5817 212.194 25 207.5 25C202.806 25 199 28.5817 199 33C199 37.4183 202.806 41 207.5 41Z" fill="#4585FF"/>
<path d="M229 41C233.418 41 237 37.4183 237 33C237 28.5817 233.418 25 229 25C224.582 25 221 28.5817 221 33C221 37.4183 224.582 41 229 41Z" fill="#24285B"/>
<path d="M313 99.7536L266 72L219 99.7536V155.246L266 183L313 155.246V99.7536Z" fill="#FFD200"/>
<path d="M290.321 221H216.679C211.886 221 208 225.017 208 229.972V237.028C208 241.983 211.886 246 216.679 246H290.321C295.114 246 299 241.983 299 237.028V229.972C299 225.017 295.114 221 290.321 221Z" fill="#24285B"/>
<path d="M308 255C319.598 255 329 245.598 329 234C329 222.402 319.598 213 308 213C296.402 213 287 222.402 287 234C287 245.598 296.402 255 308 255Z" fill="#4585FF"/>
<path d="M300 233.676L306.5 242L317 226" stroke="white" stroke-width="3.045" stroke-linecap="round" stroke-linejoin="round"/>
<path opacity="0.47" d="M219 100L266 128L313 100L266 72L219 100Z" fill="white"/>
<path opacity="0.47" d="M238 110.773L247.328 116L295 89.2274L285.672 84L238 110.773Z" fill="white"/>
<path opacity="0.09" d="M267 127.672V183L313 155.328V100L267 127.672Z" fill="black"/>
<path opacity="0.09" d="M258 159.657V171L247 165.328V154L258 159.657Z" fill="black"/>
<path opacity="0.37" d="M247 116.863V134L237 128.137V111L247 116.863Z" fill="white"/>
<path opacity="0.47" d="M295 110.773L285.672 116L238 89.2274L247.328 84L295 110.773Z" fill="white"/>
<path opacity="0.37" d="M286 116.863V134L295 128.137V111L286 116.863Z" fill="white"/>
<path d="M114.227 66.6525C114.227 66.6525 116.313 76.096 119.79 81.711C120.122 82.2554 120.556 82.7273 121.068 83.0994C121.58 83.4715 122.159 83.7364 122.772 83.8788C123.385 84.0212 124.02 84.0383 124.64 83.9291C125.259 83.8198 125.851 83.5864 126.382 83.2424C129.163 81.4558 132.334 78.2087 131.819 73.0049L132 64.0719C131.855 62.2786 131.167 60.5757 130.03 59.1988C128.894 57.8219 127.367 56.8392 125.658 56.3866C119.414 54.3165 112.669 60.9666 114.227 66.6525Z" fill="#F4A28C"/>
<path d="M132.492 65L146 93.2774L130.679 100L127 76.7327L132.492 65Z" fill="#F4A28C"/>
<path d="M115.647 65.5719C118.533 64.8098 121.316 63.726 123.939 62.3426C123.499 63.8087 123.52 65.367 124 66.8216C124.48 68.2762 125.398 69.5622 126.637 70.518C127.804 71.4609 129.277 71.9848 130.803 71.9997C132.329 72.0146 133.813 71.5197 135 70.5998L131.024 59.2496C130.521 57.6113 129.565 56.1343 128.258 54.9756C126.95 53.8168 125.34 53.0195 123.598 52.6684C122.087 52.3513 120.554 52.1328 119.012 52.0143C115.164 51.7418 110.89 55.4616 107.099 54.1944C106.717 54.0658 106.307 54.0351 105.908 54.1052C105.51 54.1753 105.138 54.3439 104.828 54.5942C104.519 54.8446 104.282 55.1682 104.143 55.5329C104.003 55.8977 103.965 56.2911 104.032 56.6743C104.643 60.2987 107.099 65.5446 112.552 65.9398C113.598 65.9926 114.646 65.8681 115.647 65.5719V65.5719Z" fill="#24285B"/>
<path d="M127.171 70.6995C127.171 70.6995 126.272 66.7013 128.596 66.0508C130.92 65.4003 132.25 71.1754 129.315 73L127.171 70.6995Z" fill="#F4A28C"/>
<path d="M115.37 72L114.074 78.1345C113.998 78.4831 113.98 78.8559 114.023 79.2178C114.066 79.5798 114.168 79.919 114.319 80.2038C114.471 80.4885 114.667 80.7094 114.89 80.8456C115.112 80.9819 115.353 81.029 115.591 80.9827L119 80.3254L115.37 72Z" fill="#F4A28C"/>
<path opacity="0.31" d="M127 83.559C129.062 82.4678 130.703 80.8824 131.719 79C131.719 79 133.374 84.2402 128.655 91L127 83.559Z" fill="#CE8172"/>
<path d="M64 210.619C64 210.619 60.1841 196.708 53.4816 195.084C46.7791 193.46 55.7768 216 55.7768 216L64 210.619Z" fill="#F4A28C"/>
<path d="M65.9986 177.587L50.9282 181.769L57.7431 206.326L72.8135 202.144L65.9986 177.587Z" fill="#FFD200"/>
<path d="M87 107H31V146H87V107Z" fill="#E6E6E6"/>
<path opacity="0.43" d="M51 124.097L58.5726 135L70 118" stroke="#878787" stroke-width="3.045" stroke-linecap="round" stroke-linejoin="round"/>
</svg>
