<svg id="Layer_1" data-name="Layer 1" xmlns="http://www.w3.org/2000/svg" viewBox="0 0 400 300" width="406" height="306" class="illustration styles_illustrationTablet__1DWOa"><path d="M128.29,170.15s19.15,40.76-4.85,45.26S93.31,192.9,93.31,192.9l-8.68,5.6s9.48,31.18,35.89,31.15S164.8,221,164.29,192.9,128.29,170.15,128.29,170.15Z" fill="#4585FF"></path><path d="M128.29,170.15s19.15,40.76-4.85,45.26S93.31,192.9,93.31,192.9l-8.68,5.6s9.48,31.18,35.89,31.15S164.8,221,164.29,192.9,128.29,170.15,128.29,170.15Z" fill="#fff" opacity="0.44"></path><path d="M156.66,110.79l-7.61,2.39-11.41,4.75s-23.91,20.54-15.22,42.37,47.87,42.29,47.87,42.29l15.5-20.18Z" fill="#4585FF"></path><polygon points="84.18 145.89 88.71 157.26 93.5 145.89 84.18 145.89" fill="#e6e6e6"></polygon><rect x="156.66" y="53.92" width="151.96" height="200.04" fill="#e6e6e6"></rect><ellipse cx="233.14" cy="162.74" rx="43.13" ry="18.4" opacity="0.08"></ellipse><circle cx="175.79" cy="70.59" r="5.5" fill="#ffd200"></circle><circle cx="191.3" cy="70.59" r="5.5" fill="#4585FF"></circle><circle cx="206.14" cy="70.59" r="5.5" fill="#24285b"></circle><polygon points="264.97 117.42 232.05 98.41 199.13 117.42 199.13 155.43 232.05 174.44 264.97 155.43 264.97 117.42" fill="#ffd200"></polygon><rect x="191.3" y="201.3" width="64.27" height="17.08" rx="6.13" fill="#24285b"></rect><circle cx="261.51" cy="209.84" r="14.77" fill="#4585FF"></circle><polyline points="256.15 210.08 260.31 215.6 267.03 204.99" fill="none" stroke="#fff" stroke-linecap="round" stroke-linejoin="round" stroke-width="3"></polyline><polygon points="199.13 117.42 232.05 136.43 264.97 117.42 232.05 98.41 199.13 117.42" fill="#fff" opacity="0.47"></polygon><polygon points="212.48 125.01 218.9 128.71 251.71 109.76 245.29 106.06 212.48 125.01" fill="#fff" opacity="0.47"></polygon><polygon points="232.05 136.43 232.05 174.44 264.97 155.43 264.97 117.42 232.05 136.43" opacity="0.09"></polygon><polygon points="226.33 158.34 226.33 166.16 219.56 162.25 219.56 154.44 226.33 158.34" opacity="0.09"></polygon><polygon points="219.12 128.98 219.12 140.38 212.35 136.48 212.35 125.08 219.12 128.98" fill="#fff" opacity="0.37"></polygon><polygon points="252.19 124.84 245.77 128.54 212.96 109.59 219.38 105.89 252.19 124.84" fill="#fff" opacity="0.47"></polygon><polygon points="245.55 128.81 245.55 140.21 252.31 136.31 252.31 124.91 245.55 128.81" fill="#fff" opacity="0.37"></polygon><path d="M126.27,93.88s1.5,6.66,4,10.62a3.42,3.42,0,0,0,4.74,1.08c2-1.26,4.28-3.55,3.91-7.22l.13-6.3a6.12,6.12,0,0,0-4.56-5.42C130,85.18,125.15,89.87,126.27,93.88Z" fill="#f4a28c"></path><polygon points="138.99 93.2 149.05 113.18 137.64 117.93 134.9 101.49 138.99 93.2" fill="#f4a28c"></polygon><path d="M128,93.64a27,27,0,0,0,5.84-2.37,5.68,5.68,0,0,0,1.9,6,4.63,4.63,0,0,0,5.89.06L138.83,89a6.94,6.94,0,0,0-5.23-4.83,24.16,24.16,0,0,0-3.23-.48c-2.71-.2-5.72,2.53-8.39,1.6a1.64,1.64,0,0,0-2.16,1.82c.43,2.66,2.16,6.51,6,6.8A6.28,6.28,0,0,0,128,93.64Z" fill="#24285b"></path><path d="M135,97.25s-.75-2.52,1.19-2.93,3.05,3.23.6,4.38Z" fill="#f4a28c"></path><path d="M127.43,98l-1,3.08a1.09,1.09,0,0,0,1.17,1.43l2.63-.33Z" fill="#f4a28c"></path><path d="M135.35,105.11a8.07,8.07,0,0,0,3.08-3.48s1.08,4-2,9.16Z" fill="#ce8172" opacity="0.31"></path><path d="M92.1,193.68s-2.71-9.85-7.47-11,1.63,14.81,1.63,14.81Z" fill="#f4a28c"></path><rect x="85.03" y="172.01" width="10.85" height="17.68" transform="translate(-45.07 30.78) rotate(-15.51)" fill="#ffd200"></rect><rect x="69.31" y="121.84" width="39.06" height="27.57" fill="#e6e6e6"></rect><polyline points="82.99 134.08 87.96 141.09 95.46 130.16" fill="none" stroke="#878787" stroke-linecap="round" stroke-linejoin="round" stroke-width="3" opacity="0.43"></polyline></svg>