<svg width="406" height="306" viewBox="0 0 406 306" fill="none" xmlns="http://www.w3.org/2000/svg">
<path d="M277 111.552C277 111.552 272.208 133.449 246.837 135.925C221.467 138.401 186 79 186 79C186 79 216.612 82.1139 227.769 97.1204C238.925 112.127 249.82 119.13 267.291 107.462L277 111.552Z" fill="#4585FF"/>
<path opacity="0.2" d="M277 111.552C277 111.552 272.208 133.449 246.837 135.925C221.467 138.401 186 79 186 79C186 79 216.612 82.1139 227.769 97.1204C238.925 112.127 249.82 119.13 267.291 107.462L277 111.552Z" fill="white"/>
<path opacity="0.45" d="M204 303C273.036 303 329 295.165 329 285.5C329 275.835 273.036 268 204 268C134.964 268 79 275.835 79 285.5C79 295.165 134.964 303 204 303Z" fill="#E6E6E6"/>
<path d="M184.658 273.936C184.658 273.936 183.29 278.652 186.348 281.399C189.407 284.146 187.912 288.095 184.359 286.716C180.806 285.337 176 275.716 176 275.716L179.714 271L184.658 273.936Z" fill="#4585FF"/>
<path d="M229.334 270.367C229.334 270.367 228.566 275.514 231.936 277.993C235.307 280.472 234.321 284.818 230.63 283.866C226.938 282.914 221 273.447 221 273.447L224.072 268L229.334 270.367Z" fill="#4585FF"/>
<path d="M156.964 41.0864C156.964 41.0864 156.485 50.7845 154.038 56.9434C153.801 57.5447 153.449 58.0917 153.004 58.5524C152.558 59.0132 152.028 59.3784 151.443 59.627C150.858 59.8755 150.231 60.0023 149.598 60C148.965 59.9977 148.339 59.8663 147.756 59.6135C144.756 58.354 141.056 55.6461 140.699 50.4192L139.027 41.6028C138.887 39.8013 139.296 37.9997 140.199 36.4472C141.102 34.8947 142.454 33.6683 144.068 32.9375C149.87 29.7636 157.591 35.192 156.964 41.0864Z" fill="#F4A28C"/>
<path d="M141 49L145.162 74.2074L162 75L152.209 55.3048L141 49Z" fill="#F4A28C"/>
<path d="M155.041 40.7104C152.005 40.422 149.013 39.7794 146.127 38.7957C146.81 40.2369 147.054 41.8462 146.828 43.4241C146.601 45.0019 145.915 46.4789 144.853 47.6718C143.851 48.8988 142.434 49.7194 140.867 49.9796C140.332 50.0376 139.791 49.9716 139.286 49.7867C138.78 49.6018 138.325 49.303 137.955 48.9138C137.585 48.5245 137.311 48.0554 137.153 47.5429C136.995 47.0305 136.959 46.4888 137.047 45.96L138.435 36.7669C138.647 34.9704 139.346 33.2652 140.456 31.8336C141.566 30.4019 143.047 29.2977 144.739 28.6389C146.19 28.0545 147.679 27.5673 149.196 27.1807C153.016 26.2424 157.932 29.3617 161.498 27.3836C161.856 27.189 162.259 27.09 162.668 27.0963C163.076 27.1025 163.476 27.2137 163.828 27.4191C164.181 27.6246 164.474 27.9172 164.679 28.2687C164.884 28.6202 164.995 29.0185 165 29.4251C165 33.2291 163.535 39.1634 158.098 40.5202C157.097 40.755 156.063 40.8193 155.041 40.7104V40.7104Z" fill="#24285B"/>
<path d="M145.979 47.6003C145.979 47.6003 146.35 44.0727 143.973 44.0008C141.595 43.9288 141.032 49.0041 144.164 50L145.979 47.6003Z" fill="#F4A28C"/>
<path d="M156.749 46L158.823 50.3615C158.94 50.6054 159.001 50.8783 159 51.1553C158.999 51.4322 158.935 51.7044 158.815 51.9468C158.695 52.1892 158.523 52.3942 158.313 52.5429C158.104 52.6916 157.865 52.7794 157.617 52.7981L154 53L156.749 46Z" fill="#F4A28C"/>
<path opacity="0.31" d="M153.07 59.0453C150.972 59.1699 148.874 58.8086 147 58C147 58 147.505 63.77 156 64L153.07 59.0453Z" fill="#CE8172"/>
<path d="M222.553 188L235.469 208.242C238.866 213.563 241.007 219.596 241.728 225.879C242.449 232.162 241.731 238.528 239.629 244.488L230.28 271L220.584 268.881L223.308 242.507C223.719 238.501 223.142 234.455 221.63 230.727C220.119 226.999 217.718 223.703 214.64 221.13L195 204.615L209.86 188H222.553Z" fill="#24285B"/>
<path d="M113.036 97.7103C113.321 90.6719 116.338 84.0299 121.434 79.2204C126.53 74.411 133.295 71.8207 140.267 72.0097C158.003 72.4451 184.15 74.7713 200.543 83.9643C227.22 98.8921 222.712 184.403 222.712 184.403L165.479 198C165.479 198 111.41 144.011 113.036 97.7103Z" fill="#4585FF"/>
<path opacity="0.08" d="M138.518 88C138.518 88 162.72 98.6544 172.952 141.272C183.061 183.493 221 158.368 221 158.368L220.41 185.264L165.512 198L153.608 184.806C153.608 184.806 117.636 144.902 138.518 88Z" fill="black"/>
<path d="M165 198.358L178.328 218.872C180.883 222.803 182.584 227.234 183.322 231.875C184.059 236.515 183.816 241.26 182.607 245.799L175.729 271.528L186.457 274L200.938 247.443C203.912 242.001 205.634 235.954 205.976 229.751C206.318 223.547 205.27 217.346 202.912 211.605L199.834 204.104L217 186L165 198.358Z" fill="#24285B"/>
<path opacity="0.08" d="M181 158L230.303 159.173C230.303 159.173 224.114 168.756 232 179.978L211.786 197L181 158Z" fill="black"/>
<path d="M252.745 72.0556L268.024 103.369C268.281 103.906 268.662 104.372 269.136 104.728C269.61 105.083 270.162 105.317 270.745 105.409L304.89 110.427C305.56 110.525 306.19 110.811 306.708 111.252C307.226 111.693 307.612 112.272 307.822 112.924C308.031 113.576 308.057 114.274 307.895 114.939C307.733 115.605 307.39 116.211 306.905 116.69L282.194 141.047C281.774 141.466 281.459 141.981 281.277 142.549C281.095 143.117 281.05 143.721 281.146 144.31L286.991 178.704C287.106 179.379 287.032 180.073 286.778 180.708C286.523 181.343 286.098 181.893 285.551 182.297C285.004 182.7 284.356 182.94 283.68 182.99C283.005 183.04 282.33 182.898 281.73 182.58L251.193 166.26C250.672 165.978 250.091 165.83 249.5 165.83C248.909 165.83 248.328 165.978 247.807 166.26L217.27 182.58C216.67 182.898 215.995 183.04 215.32 182.99C214.644 182.94 213.996 182.7 213.449 182.297C212.902 181.893 212.477 181.343 212.222 180.708C211.968 180.073 211.894 179.379 212.009 178.704L217.854 144.31C217.95 143.721 217.905 143.117 217.723 142.549C217.541 141.981 217.226 141.466 216.806 141.047L192.095 116.69C191.61 116.211 191.267 115.605 191.105 114.939C190.943 114.274 190.969 113.576 191.178 112.924C191.388 112.272 191.774 111.693 192.292 111.252C192.81 110.811 193.44 110.525 194.11 110.427L228.255 105.409C228.838 105.317 229.39 105.083 229.864 104.728C230.338 104.372 230.719 103.906 230.976 103.369L246.255 72.0556C246.551 71.4394 247.012 70.9198 247.586 70.5563C248.16 70.1928 248.823 70 249.5 70C250.177 70 250.84 70.1928 251.414 70.5563C251.988 70.9198 252.449 71.4394 252.745 72.0556Z" fill="#FFD200"/>
<path d="M360.023 132.883L363.705 156.374C363.765 156.776 363.921 157.157 364.161 157.485C364.4 157.814 364.715 158.079 365.08 158.259L386.511 168.541C386.932 168.743 387.288 169.058 387.539 169.451C387.79 169.844 387.926 170.3 387.931 170.767C387.937 171.233 387.812 171.692 387.57 172.091C387.328 172.491 386.98 172.814 386.564 173.025L365.365 183.772C365.004 183.959 364.692 184.229 364.457 184.561C364.222 184.892 364.069 185.275 364.013 185.678L360.866 209.231C360.805 209.693 360.615 210.129 360.319 210.489C360.022 210.85 359.631 211.12 359.189 211.269C358.747 211.419 358.272 211.442 357.818 211.335C357.364 211.229 356.949 210.998 356.619 210.668L339.857 193.783C339.572 193.493 339.22 193.277 338.831 193.156C338.443 193.034 338.03 193.01 337.631 193.087L314.235 197.413C313.776 197.496 313.303 197.45 312.87 197.278C312.436 197.107 312.059 196.818 311.781 196.443C311.503 196.069 311.335 195.624 311.297 195.159C311.258 194.694 311.351 194.227 311.564 193.812L322.397 172.664C322.58 172.3 322.673 171.899 322.669 171.492C322.664 171.085 322.562 170.686 322.371 170.327L311.073 149.417C310.851 149.006 310.749 148.542 310.778 148.076C310.807 147.61 310.965 147.162 311.236 146.782C311.506 146.401 311.877 146.104 312.308 145.924C312.738 145.744 313.21 145.687 313.671 145.762L337.142 149.522C337.544 149.582 337.954 149.543 338.338 149.41C338.722 149.277 339.068 149.052 339.346 148.756L355.755 131.548C356.075 131.209 356.484 130.966 356.935 130.848C357.386 130.73 357.862 130.741 358.307 130.88C358.752 131.019 359.149 131.281 359.453 131.635C359.756 131.989 359.954 132.422 360.023 132.883Z" fill="#C9C9C9"/>
<path d="M52.1947 132.863L65.5855 152.511C65.8117 152.849 66.1163 153.127 66.4733 153.321C66.8303 153.515 67.229 153.619 67.6352 153.626L91.4052 153.735C91.8718 153.737 92.3285 153.869 92.7238 154.117C93.1191 154.365 93.4372 154.719 93.642 155.138C93.8469 155.557 93.9303 156.025 93.8829 156.49C93.8355 156.954 93.6592 157.395 93.3738 157.765L78.8233 176.557C78.5765 176.88 78.4109 177.258 78.3403 177.658C78.2697 178.059 78.2962 178.47 78.4175 178.858L85.6648 201.488C85.8073 201.932 85.8227 202.408 85.7093 202.86C85.5958 203.313 85.3581 203.724 85.0229 204.049C84.6877 204.373 84.2684 204.597 83.8125 204.696C83.3566 204.794 82.8822 204.763 82.4431 204.606L60.0635 196.53C59.6815 196.39 59.2707 196.346 58.8677 196.403C58.4647 196.46 58.0819 196.615 57.7533 196.855L38.467 210.787C38.0881 211.059 37.6407 211.22 37.1753 211.251C36.7099 211.282 36.2452 211.182 35.8335 210.962C35.4219 210.743 35.0798 210.413 34.8461 210.009C34.6123 209.605 34.4961 209.144 34.5106 208.678L35.239 184.927C35.2486 184.521 35.1606 184.118 34.9824 183.752C34.8042 183.387 34.5409 183.07 34.2146 182.827L15.0475 168.774C14.6714 168.497 14.3801 168.121 14.2066 167.688C14.0331 167.255 13.9842 166.782 14.0656 166.322C14.1469 165.863 14.3552 165.435 14.6668 165.088C14.9785 164.741 15.3811 164.488 15.8291 164.358L38.6479 157.7C39.0367 157.582 39.3911 157.371 39.6808 157.086C39.9704 156.801 40.1866 156.45 40.311 156.064L47.7668 133.485C47.9103 133.041 48.1757 132.647 48.5327 132.347C48.8898 132.047 49.3241 131.853 49.7859 131.788C50.2478 131.723 50.7186 131.789 51.1446 131.98C51.5705 132.17 51.9344 132.476 52.1947 132.863Z" fill="#E6E6E6"/>
<path d="M110.863 94.3718C108.23 107.182 106.006 132.114 121.807 169.103C123.899 173.953 127.345 178.085 131.723 180.994C136.101 183.903 141.224 185.463 146.466 185.486L220.441 186L221 174.556L152.789 163.099C152.789 163.099 155.522 104.763 136.404 86.1867C127.832 77.8762 113.273 82.6269 110.863 94.3718Z" fill="#4585FF"/>
<path opacity="0.2" d="M110.863 94.3718C108.23 107.182 106.006 132.114 121.807 169.103C123.899 173.953 127.345 178.085 131.723 180.994C136.101 183.903 141.224 185.463 146.466 185.486L220.441 186L221 174.556L152.789 163.099C152.789 163.099 155.522 104.763 136.404 86.1867C127.832 77.8762 113.273 82.6269 110.863 94.3718Z" fill="white"/>
<path d="M221 183.933C221 183.933 229.618 188.457 234.004 184.119C238.391 179.781 234.208 176.682 234.004 172.133C234.05 171.484 233.884 170.837 233.533 170.298C233.182 169.758 232.666 169.357 232.068 169.158C231.288 168.914 230.451 168.953 229.695 169.269C228.938 169.584 228.309 170.157 227.909 170.894C226.713 172.902 224.478 176.013 221.454 175.492L221 183.933Z" fill="#F4A28C"/>
<path d="M280 103.976C280 103.976 275.003 97.2799 269.476 103.976C263.95 110.672 275.387 120.397 280 103.976Z" fill="#F4A28C"/>
<path opacity="0.08" d="M153 162C148.339 161.725 143.661 161.725 139 162C143.411 160.083 148.129 158.735 153 158V162Z" fill="black"/>
<path d="M112.126 9.58642L117.713 13.0908L121.217 7.50434L115.631 3.99993L112.126 9.58642Z" fill="#C9C9C9"/>
<path d="M236.28 13.0914L241.162 17.9736L246.044 13.0914L241.162 8.20911L236.28 13.0914Z" fill="#E6E6E6"/>
<path d="M48.3521 88.031L50.8545 98.9922L61.8156 96.4898L59.3133 85.5287L48.3521 88.031Z" fill="#E6E6E6"/>
<path d="M320 70V81H331V70H320Z" fill="#C9C9C9"/>
</svg>
