<svg id="Layer_1" data-name="Layer 1" xmlns="http://www.w3.org/2000/svg" viewBox="0 0 400 300" width="406" height="306" class="illustration styles_illustrationTablet__1DWOa"><path d="M104.48,62.26c-32.47,13-56.55,45.81-61.3,85.55-4,33.49,5.56,70.5,61.84,81,109.51,20.52,212.07,26.37,238.26-29S361.4,49.7,305.83,43.57C261.65,38.69,167.88,37,104.48,62.26Z" fill="#e6e6e6" opacity="0.3"></path><path d="M196.25,155.82c.42-.25,1-.48,1.37-.18s.29.94.1,1.42a10.46,10.46,0,0,1-2.67,3.89,16.86,16.86,0,0,1,10.93.45,2.12,2.12,0,0,1,.72.4,1.67,1.67,0,0,1,.24,1.93,4.55,4.55,0,0,1-1.42,1.51,30.21,30.21,0,0,1-9.88,5.19,9.64,9.64,0,0,1-4.08.46,4.47,4.47,0,0,1-3.35-2.17C185.87,164.21,193,157.81,196.25,155.82Z" fill="#f4a28c"></path><ellipse cx="207" cy="269.52" rx="137.35" ry="11.93" fill="#e6e6e6" opacity="0.39"></ellipse><path d="M125,97.72s16-2.85,19,12.72-6,52.09,26.14,51.83S194.34,161,194.34,161l1.29,9.19s-57,21.24-67.58-13S125,97.72,125,97.72Z" fill="#4585FF"></path><path d="M125,97.72s16-2.85,19,12.72-6,52.09,26.14,51.83S194.34,161,194.34,161l1.29,9.19s-57,21.24-67.58-13S125,97.72,125,97.72Z" fill="#fff" opacity="0.46"></path><polygon points="134.53 210.02 107.14 260.6 103.37 259.72 119.8 206.57 134.53 210.02" fill="#f4a28c"></polygon><path d="M107.48,259.82s.66,3.43,3.17,4.58,1.08,4.81-2.68,2.41a25.21,25.21,0,0,1-3.32-2.51,7.08,7.08,0,0,0-3.39-1.61,1.2,1.2,0,0,1-.89-1c-.44-1.89,3.89-3.5,3.89-3.5Z" fill="#4585FF"></path><polygon points="139.53 205.19 143.94 262.54 140.29 263.84 125.28 210.27 139.53 205.19" fill="#f4a28c"></polygon><path d="M143.8,261.7s2.41,2.52,5.15,2.13,3.51,3.46-.95,3.47a24,24,0,0,1-4.15-.31,7.21,7.21,0,0,0-3.72.49,1.19,1.19,0,0,1-1.31-.39c-1.4-1.35,1.37-5,1.37-5Z" fill="#4585FF"></path><path d="M118.42,70.09s-5.94-5-10.61-1.52S106.31,86.26,96.15,83c0,0,11,9.16,18.77-5.8Z" fill="#24285b"></path><path d="M113.68,79.82s-4-.58-2.37-6.08,6.23-5.29,7.53-3.85Z" fill="#4585FF"></path><polygon points="141.41 170.18 151.19 251.88 125.77 251.88 123.66 178.36 141.41 170.18" fill="#24285b"></polygon><polygon points="141.41 170.18 151.19 251.88 125.77 251.88 123.66 178.36 141.41 170.18" opacity="0.08"></polygon><path d="M125.74,76.83a30.11,30.11,0,0,1-1.89,7.77,2.42,2.42,0,0,1-3.23,1.15A5.33,5.33,0,0,1,117.28,81l-.62-4.4a4.32,4.32,0,0,1,2.74-4.17C122.43,71.05,126.18,73.93,125.74,76.83Z" fill="#f4a28c"></path><polygon points="115.67 79.07 112.54 94.52 121.18 95.64 120.02 84.24 115.67 79.07" fill="#f4a28c"></polygon><path d="M125.27,79.83l1,2.08a.77.77,0,0,1-.71,1.09h-1.87Z" fill="#f4a28c"></path><path d="M120.05,84.57a6,6,0,0,1-2.64-1.71s-1,3.3,3,5Z" fill="#ce8172" opacity="0.31"></path><path d="M116,79.15s.31-1.83-1.08-2-1.87,2.51-.06,3.12Z" fill="#f4a28c"></path><path d="M124.79,76.43a14.14,14.14,0,0,1-4.59-.54s-1.58,5.2-5.94,6c0,0-3.09-8.38,2.15-10.89,4.4-2.11,7.71-4,10.74-.6A3.61,3.61,0,0,1,124.79,76.43Z" fill="#24285b"></path><path d="M110.27,95.55s-26,2.8-27.07,17.78,17.36,56.85,17.36,56.85h40.85l3.82-22.91a47,47,0,0,1,5.37-15c3.14-5.64,5.86-15-2.8-24a27.63,27.63,0,0,0-10.23-6.57L122.29,96Z" fill="#4585FF"></path><path d="M120,78.69s0-2.14-1.71-2-2,2.63,0,3.85Z" fill="#f4a28c"></path><path d="M109.16,95.21s-1.2-3.73,5.69-4.51,12.4,2.15,10.13,7C125,97.72,119.79,101.86,109.16,95.21Z" fill="#4585FF"></path><path d="M109.16,95.21s-1.2-3.73,5.69-4.51,12.4,2.15,10.13,7C125,97.72,119.79,101.86,109.16,95.21Z" fill="#fff" opacity="0.46"></path><path d="M100.56,170.18l6,19.64a63.35,63.35,0,0,1-.71,39.13l-5.27,15.28,25.21,7.66,6.11-25.12a60,60,0,0,0-.78-31.26l-.11-.36a21.36,21.36,0,0,1,9.38-24.33l1-.64Z" fill="#24285b"></path><path d="M107.28,108.83s6.39,10.2,0,24c-2.12,4.6-4.85,11.58-.15,15.55,2.34,2,5.66,2.61,8.6,3a52.32,52.32,0,0,0,6.73.43c3,0,4.29.73,7,1.66a16.74,16.74,0,0,0,3.32.5,14.87,14.87,0,0,1,7.53,3.19c4.16,3.37,1.82,8.43,1,13H100.56l-.76-2.74-8.61-15.76-4-19.92Z" opacity="0.08"></path><path d="M137.42,153.09s3.21,5.69-3,6.88-6.37,4.9-6.37,4.9l-13.12-1.75Z" opacity="0.08"></path><path d="M107.32,115c2.73-10-8.5-18.07-17.13-12.34C80,109.44,65.54,123.57,71.52,147c8.94,35,36.4,23.45,56.53,10.21l-3.17-5.36s-29.51,9-32.79-6.72a12.93,12.93,0,0,1,3.4-11.38C99.22,129.75,105.3,122.41,107.32,115Z" fill="#4585FF"></path><path d="M107.32,115c2.73-10-8.5-18.07-17.13-12.34C80,109.44,65.54,123.57,71.52,147c8.94,35,36.4,23.45,56.53,10.21l-3.17-5.36s-29.51,9-32.79-6.72a12.93,12.93,0,0,1,3.4-11.38C99.22,129.75,105.3,122.41,107.32,115Z" fill="#fff" opacity="0.46"></path><path d="M124.88,151.84s8.69-5.06,12,0-8.84,5.36-8.84,5.36Z" fill="#f4a28c"></path><path d="M217.85,123.92s-2.44-8.36-3-7.6-.47,3.09-.47,3.09-2.63-4.41-4.22-3.75a5.93,5.93,0,0,0-3.2,3.66c-.09,1,5.45,10.42,5.45,10.42Z" fill="#f4a28c"></path><path d="M250.41,104.14s-9.54,42.1-13.59,40.71c-5.44-1.88-18.59-23-18.59-23l-7.14,7.38s16.15,43.69,28.16,41.3,25.56-32.71,25.56-32.71Z" fill="#4585FF"></path><path d="M250.41,104.14s-9.54,42.1-13.59,40.71c-5.44-1.88-18.59-23-18.59-23l-7.14,7.38s16.15,43.69,28.16,41.3,25.56-32.71,25.56-32.71Z" opacity="0.08"></path><path d="M278.69,262.13s-1.86,3.94-5.58,3.9-5,3.46-1.8,4.72,12.18-2.17,12.18-2.17l.35-6.78Z" fill="#4585FF"></path><path d="M316.77,262.13s1.86,3.94,5.58,3.9,5,3.46,1.81,4.72S312,268.58,312,268.58l-.35-6.78Z" fill="#4585FF"></path><path d="M314.07,183.57l-46.42-6.07,8.78,85.17h10.83S286.45,219,293.05,206,314.07,183.57,314.07,183.57Z" fill="#24285b"></path><path d="M314.07,183.57l6.84,79.1H309.05s-8.25-59.94-29.52-75.41Z" fill="#24285b"></path><path d="M269.61,63.44a33.2,33.2,0,0,0,.58,8.89,2.69,2.69,0,0,0,3.32,1.89,6,6,0,0,0,4.58-4.55L279.62,65a4.82,4.82,0,0,0-2.21-5.11C274.35,57.72,269.67,60.17,269.61,63.44Z" fill="#f4a28c"></path><polygon points="278.69 66.31 283.74 83.15 274.26 85.27 274.39 72.17 278.69 66.31" fill="#f4a28c"></polygon><path d="M269.55,66.82l-1.46,2.1a.85.85,0,0,0,.56,1.33l2.05.36Z" fill="#f4a28c"></path><path d="M274.41,73.91s1.22-.26,3.34-2.36c0,0,.47,3.48-3.41,6.21Z" fill="#ce8172" opacity="0.31"></path><path d="M276.72,66.71c-.12.73-.64,1.34-.81,2.09a2.17,2.17,0,0,0,0,1.13A1.61,1.61,0,0,0,277.49,71c1.8-.07,2.62-3.26,3.23-4.61,0,0,1.9-5.72.2-8.5-1.35-2.21-4-1.58-5.78-3.16-1-1-1.79-2.4-3.17-2.72s-2.7.68-3.54,1.8a7.75,7.75,0,0,0-1.59,4,5.64,5.64,0,0,0,1.23,4.06c1.28,1.53,4,1.88,5.89,1.87a2.84,2.84,0,0,1,2.76,2.34A2.15,2.15,0,0,1,276.72,66.71Z" fill="#24285b"></path><path d="M274.88,66.55s0-2.07,1.56-1.94,1.57,3.12-.54,3.44Z" fill="#f4a28c"></path><path d="M325.4,126c-6.18,45.44-10.13,58.41-10.13,58.41l-46.85.45s-.31-4.69-1-11.21c-1.36-12.15-4.15-30.68-9-37C251,127,236.31,98.42,272.48,85.7l8.15-1.83s17.67-2.18,30.95,5.8C320.94,95.28,328.12,105.94,325.4,126Z" fill="#4585FF"></path><path d="M325.4,126c-6.18,45.44-10.13,58.41-10.13,58.41l-46.85.45s-.31-4.69-1-11.21a56.76,56.76,0,0,1,9.77-7.44c3.07-1.93,6.28-3.75,8.78-6.37,3.62-3.79,5.46-8.89,6.95-13.9a150.47,150.47,0,0,0,6.19-45.38l6-9.56a14.49,14.49,0,0,1,6.52-1.28C320.94,95.28,328.12,105.94,325.4,126Z" opacity="0.08"></path><path d="M269.42,86.86s-3.38,46.38,11.21,67c0,0-.83-48.85,11.72-69.94C292.35,83.88,280.63,80.65,269.42,86.86Z" fill="#fff"></path><path d="M298.5,99a12,12,0,0,1,20.73-5.89,27.15,27.15,0,0,1,6.19,11.43c2.26,9,0,27-2.31,40.85a28.74,28.74,0,0,1-21,23L269,177.08l-2.81-6.54,26.44-11.65a15.46,15.46,0,0,0,8.76-18C298.59,130.22,295.81,114.14,298.5,99Z" fill="#4585FF"></path><path d="M298.5,99a12,12,0,0,1,20.73-5.89,27.15,27.15,0,0,1,6.19,11.43c2.26,9,0,27-2.31,40.85a28.74,28.74,0,0,1-21,23L269,177.08l-2.81-6.54,26.44-11.65a15.46,15.46,0,0,0,8.76-18C298.59,130.22,295.81,114.14,298.5,99Z" fill="#fff" opacity="0.19"></path><path d="M266.15,170.54c-1.21.32-2.15,1-3.29,1.39-1.76.62-3.73.69-5.53,1.3-.34.12-.75.36-.68.71s.26.35.45.46l1.4.79-3.42,1.33a.77.77,0,0,0-.34.22.56.56,0,0,0-.05.42c.38,2.3,3.7,2.22,5.45,2.21,3.53,0,6.26-.6,8.18-3.78C268.64,175.06,266.45,171.26,266.15,170.54Z" fill="#f4a28c"></path><path d="M269.42,86.86,260.19,113l7.34,12.65-2.72,12.19,15.82,16S267.53,142.07,269.42,86.86Z" fill="#fff" opacity="0.27"></path><path d="M274.37,85.06c.05-1.34.93-1.09,2.21-1.46s2.6-1.79,3.71-.56c2.14,2.38-1.65,6.86-1.65,6.86h-3.5A19.47,19.47,0,0,1,274.37,85.06Z" fill="#24285b"></path><path d="M275.14,89.9h3.5s.33,27.16,2.64,43.22l-.65,20.7s-7.55-10.09-8.75-23C271.88,130.81,272.23,105.38,275.14,89.9Z" fill="#24285b"></path><path d="M269.42,86.86l4.29,3,3.42-5,3.59,4.44,11.63-5.49S278.28,78.18,269.42,86.86Z" fill="#4585FF"></path><path d="M269.42,86.86l4.29,3,3.42-5,3.59,4.44,11.63-5.49S278.28,78.18,269.42,86.86Z" fill="#fff" opacity="0.55"></path><path d="M292.35,83.88l1.95,34.55-9.08,5.42,5.35,11.24-9.94,18.73S280,104.69,292.35,83.88Z" fill="#fff" opacity="0.27"></path><rect x="190.11" y="114.34" width="40.59" height="50.3" fill="#ffd200"></rect><path d="M205.24,117.84a3.41,3.41,0,0,0,3.37,2,5,5,0,0,0,4.92-3.82C215,108.39,201.87,110.69,205.24,117.84Z" fill="#f4a28c"></path><rect x="194.21" y="142.28" width="14.54" height="14.54" fill="#fff"></rect><rect x="194.21" y="122.43" width="32.38" height="0.99" fill="#fff"></rect><rect x="194.21" y="128.98" width="32.38" height="0.99" fill="#fff"></rect><rect x="194.21" y="135.53" width="32.38" height="0.99" fill="#fff"></rect><rect x="211.81" y="142.07" width="14.78" height="0.99" fill="#fff"></rect><rect x="211.81" y="148.62" width="14.78" height="0.99" fill="#fff"></rect><rect x="211.81" y="155.16" width="14.78" height="0.99" fill="#fff"></rect><rect x="163.28" y="40.3" width="78.46" height="57.45" rx="21.3" fill="#e6e6e6"></rect><path d="M234,85s4.48,5.25,13.49,6.07c0,0-7.13,6.19-16.52-.63Z" fill="#e6e6e6"></path><path d="M205.48,48.42c0,1.39,0,2.79,0,4.18,0,.27.08.36.34.42a12.51,12.51,0,0,1,5.59,2.6,8.9,8.9,0,0,1,3.16,5.53c.11.59.15,1.19.23,1.82h-6.47a4.43,4.43,0,0,0-1-2.68,20.92,20.92,0,0,0-1.74-1.51l-.11.09v8.06l.69.17a22.61,22.61,0,0,1,5.08,1.62,7.34,7.34,0,0,1,4.4,6.14,9.59,9.59,0,0,1-1.67,7,9.77,9.77,0,0,1-4.81,3.57c-1.19.41-2.44.69-3.72,1v3.14h-6V86.39c-1.2-.32-2.36-.57-3.47-1a10.09,10.09,0,0,1-5.31-4,9.93,9.93,0,0,1-1.53-5.53h6.37a5,5,0,0,0,3.9,4.72V72c-1.21-.35-2.42-.68-3.62-1A9.14,9.14,0,0,1,192,68.78a7.33,7.33,0,0,1-2.07-4,10.25,10.25,0,0,1,.41-5.54,9.23,9.23,0,0,1,5.58-5.55,29.23,29.23,0,0,1,3.22-.83l.39-.08V48.42Zm0,32.31a5.18,5.18,0,0,0,2.68-1.16,3.44,3.44,0,0,0,.54-4.54,6.72,6.72,0,0,0-3.22-1.71Zm-6-22.44a17.47,17.47,0,0,0-2.29,1.17,3.17,3.17,0,0,0-.37,4.84,7,7,0,0,0,2.66,1.2Z" fill="#c1c1c1"></path></svg>