<svg id="Layer_1" data-name="Layer 1" xmlns="http://www.w3.org/2000/svg" viewBox="0 0 400 300" width="406" height="306" class="illustration styles_illustrationTablet__1DWOa"><title>#41 shopping</title><path d="M158.68,74.54s20,8.74,35.36,31.4,55.33,15.14,62.66-19.66c0,0,3-16.33,8.34-15.66s0,12.32,0,12.32,7.33.34,6.66,6-9.66,11-9.66,11-15.67,69.34-92,27.34Z" fill="#f4a28c"></path><ellipse cx="193.69" cy="264.87" rx="133.31" ry="16.87" fill="#e6e6e6" opacity="0.45"></ellipse><path d="M148,48s11.15,18.63-1.63,23.42-12.22-28.84-12.22-28.84Z" fill="#24285b"></path><path d="M120.1,66.7S84,83.14,84.4,109.1s27.77,71.48,27.77,71.48h58.16l0-30.11a63.67,63.67,0,0,1,6-26.87c5.91-12.7,9.13-36.19-30.57-56.9Z" fill="#4585FF"></path><path d="M127,71.13s14.47,10.08,18.78-4.43H132.41Z" fill="#fff"></path><path d="M144.59,34.43s3.15,6.68,3.69,11.69A3.71,3.71,0,0,1,145,50.2c-2.53.23-6-.19-8.14-3.56l-4.3-5.28a6.62,6.62,0,0,1,.28-7.65C135.66,29.46,142.88,30.27,144.59,34.43Z" fill="#f4a28c"></path><polygon points="134.14 42.57 132.41 66.69 145.77 66.7 141.76 49.59 134.14 42.57" fill="#f4a28c"></polygon><path d="M146.36,38.74l2.92,1.95a1.19,1.19,0,0,1-.05,2l-2.47,1.48Z" fill="#f4a28c"></path><path d="M141.88,50.07A9,9,0,0,1,137.53,48s-.87,5.22,5.49,7Z" fill="#ce8172" opacity="0.31"></path><path d="M139.71,38l-3.12,1.07S140,52.38,135.5,64A12,12,0,0,1,117.16,69l-2.73-2a5.59,5.59,0,0,1,.52-9.32c5.06-3,10.32-8.34,9.35-17.42-1.14-10.69,8.55-17.14,15.53-15.41S146.57,36.36,139.71,38Z" fill="#24285b"></path><path d="M138.5,42.27s-1-2.64-3-1.7-.45,4.78,2.41,4.13Z" fill="#f4a28c"></path><polygon points="126.92 217.9 135.07 260.64 140.06 258.5 140.05 212.27 126.92 217.9" fill="#f4a28c"></polygon><polygon points="164.22 219.49 184.66 257.48 189.89 257.48 178.22 215.31 164.22 219.49" fill="#f4a28c"></polygon><path d="M135,257.83s-3,3.83-6.88,3.64-4.42,5.27,1.79,4.71a34.24,34.24,0,0,0,5.72-1,10.14,10.14,0,0,1,5.24.19,1.69,1.69,0,0,0,1.77-.71c1.76-2.07-2.57-6.84-2.57-6.84Z" fill="#4585FF"></path><path d="M278.31,34.49s1.57,8.16,7.56,10.9,2.57,11.44-6.39,5.72a58.64,58.64,0,0,1-7.89-6,17.29,17.29,0,0,0-8.07-3.83,2.84,2.84,0,0,1-2.13-2.46c-1-4.51,9.25-8.34,9.25-8.34Z" fill="#ffd200"></path><path d="M189.84,256.73s2.25,4.33,6.08,4.87,3.36,6-2.64,4.28a33.44,33.44,0,0,1-5.48-2.06,10.08,10.08,0,0,0-5.13-.78,1.66,1.66,0,0,1-1.61-1c-.71-1.25.39-2.92,1.59-4.22a5.1,5.1,0,0,1,4.7-1.54Z" fill="#4585FF"></path><path d="M107,173.19c-.13-.51-3.14-12.42,4.7-18.73l.71.88c-7.28,5.86-4.34,17.44-4.31,17.56Z" fill="#fff"></path><path d="M121.07,171.36c-.13-.51-3.34-12.78,4.78-18.63l.63.78c-7.28,5.86-4.35,17.44-4.32,17.56Z" fill="#fff"></path><rect x="149.21" y="124.38" width="16.3" height="24" transform="translate(101.86 -64.32) rotate(33.63)" fill="#ffd200"></rect><path d="M117.51,86.73s18.84,15.88,7.68,34.38-7.73,37.69,13.31,33.35l21-4.35h0s10,17.13-9,20.19l2.71,10.28-44,.53-1.77-11.41-8-13.46L80.79,140.79Z" opacity="0.08"></path><path d="M118.74,91.7a14.36,14.36,0,0,0-23.6-10c-7.65,6.45-15.66,16-18.77,29.24-6.67,28.34-9.27,53,8,59s63.9-12,63.9-12,14.4,0,15.4-10.33-13.5-6.43-17.34,3c0,0-56.32,16.67-49-10.33C103.05,119.35,120.11,111.35,118.74,91.7Z" fill="#f4a28c"></path><rect x="239.48" y="52.29" width="55.68" height="8.96" fill="#24285b"></rect><rect x="251.37" y="94.94" width="15" height="6" transform="translate(53.19 -87.26) rotate(21.28)" fill="#4585FF"></rect><path d="M112.17,180.58l10.53,70.7h29.8l-9.16-43.39A18.11,18.11,0,0,1,154,187.47l16.31-6.89Z" fill="#24285b"></path><polygon points="170.33 180.58 199.37 251.28 170.33 251.28 146.36 187.94 170.33 180.58" fill="#24285b"></polygon><polygon points="99.46 168.93 136.76 167.69 144.05 212.44 95.2 215.93 99.46 168.93" fill="#ffd200"></polygon><polygon points="99.46 168.93 136.76 167.69 144.05 212.44 95.2 215.93 99.46 168.93" opacity="0.08"></polygon><polygon points="107.67 168.66 141.81 167.6 153.35 211.72 104.5 215.2 107.67 168.66" fill="#ffd200"></polygon><path d="M118.4,174.31l-1-.48c.05-.11,5.08-10.93.3-18.19h0a4.34,4.34,0,0,0-2.8-1.46,3.6,3.6,0,0,0-2.68,1.3l-1.11-.44a5,5,0,0,1,3.82-2A5.43,5.43,0,0,1,118.6,155C123.75,162.82,118.62,173.85,118.4,174.31Z" fill="#fff"></path><path d="M131.59,173.36l-1-.48c.05-.11,5.08-10.93.3-18.19h0a4.26,4.26,0,0,0-2.8-1.46,4,4,0,0,0-3,1.53l-.77-.67a5,5,0,0,1,3.83-2,5.43,5.43,0,0,1,3.68,1.93C136.94,161.87,131.81,172.89,131.59,173.36Z" fill="#fff"></path><circle cx="136.61" cy="46.17" r="2.48" fill="#ffd200"></circle><rect x="254.11" y="41.77" width="13.21" height="10.53" fill="#4585FF"></rect><path d="M331.7,101.92s1.57,8.16,7.57,10.9,2.57,11.44-6.39,5.72a57.37,57.37,0,0,1-7.89-6,17.33,17.33,0,0,0-8.08-3.83,2.83,2.83,0,0,1-2.12-2.45c-1.05-4.52,9.24-8.35,9.24-8.35Z" fill="#4585FF"></path><path d="M331.7,101.92s1.57,8.16,7.57,10.9,2.57,11.44-6.39,5.72a57.37,57.37,0,0,1-7.89-6,17.33,17.33,0,0,0-8.08-3.83,2.83,2.83,0,0,1-2.12-2.45c-1.05-4.52,9.24-8.35,9.24-8.35Z" fill="#fff" opacity="0.53"></path><rect x="292.87" y="119.72" width="55.68" height="8.96" fill="#24285b"></rect><rect x="307.5" y="109.2" width="13.21" height="10.53" fill="#4585FF"></rect><path d="M229.05,185.57s-9.18-2.46-11.21-11c0,0,14.19-2.93,14.66,11.73Z" fill="#4585FF" opacity="0.58"></path><path d="M230.16,184.66s-6.44-10.1-.85-19.59c0,0,10.83,6.81,6.09,19.59Z" fill="#4585FF" opacity="0.73"></path><path d="M231.82,184.66s3.33-10.71,13.55-12.78c0,0,1.95,6.94-6.57,12.78Z" fill="#4585FF"></path><polygon points="225.17 184.45 227.08 197.15 238.78 197.15 240.45 184.45 225.17 184.45" fill="#24285b"></polygon><rect x="216.37" y="197.15" width="32.88" height="69.77" fill="#c9c9c9"></rect><rect x="249.25" y="242.38" width="32.5" height="9.69" fill="#e6e6e6"></rect><rect x="249.25" y="252.06" width="41.75" height="14.86" fill="#a5a5a5"></rect></svg>