<svg width="1440" height="518" viewBox="0 0 1440 518" fill="none" xmlns="http://www.w3.org/2000/svg">
<path fill-rule="evenodd" clip-rule="evenodd" d="M0 259L34 248.52C69 238.04 137 215.584 206 248.52C274 281.457 343 366.792 411 366.792C480 366.792 549 281.457 617 291.936C686 302.416 754 410.208 823 399.728C891 389.249 960 259 1029 215.584C1097 173.665 1166 215.584 1234 194.624C1303 173.665 1371 86.8324 1406 43.4162L1440 0V518H1406C1371 518 1303 518 1234 518C1166 518 1097 518 1029 518C960 518 891 518 823 518C754 518 686 518 617 518C549 518 480 518 411 518C343 518 274 518 206 518C137 518 69 518 34 518H0V259Z" fill="#AFCBFF"/>
</svg>
